<svg xmlns="http://www.w3.org/2000/svg" viewBox="0 0 478.55 334.54"><defs><style>.cls-1{fill:#fff;}.cls-2{fill:#858584;}</style></defs><title>wireframe_hands</title><g id="slide_vertical" data-name="slide vertical"><path class="cls-1" d="M172,281.25,153.25,244l-2.75-17.5.25-18.5.75-8.75-.5-8,2.75-1,6.25,6,.75-30.75L163,152.25l4-1.5,3,1.5,1.5,4.75.75,25.25s8-4,11.5,6.5c0,0,8.25-3,11.5,10,0,0,6.5-1,10.5,8.75L209,218.25l-2.25,31-3,9,.5,8.25-.75,5.75S187.25,287.5,172,281.25Z" transform="translate(-120.89 -134.75)"/><path class="cls-2" d="M209,211a30.34,30.34,0,0,1-1.44-3c-1.86-4.27-4.62-10.56-11-10.44-.22-.73-.39-1.32-.48-1.71-.79-3.65-4.09-9.47-11.38-8.72a13.53,13.53,0,0,0-5-6.38,8.43,8.43,0,0,0-5.86-1.08c-.22-4-.41-8-.57-11.3-.31-6.53-.56-11.69-.79-13.36a5.86,5.86,0,0,0-4.35-5.28,6.66,6.66,0,0,0-6.88,3c-1.43,2.09-2.25,13.48-2.75,39.42a8.59,8.59,0,0,0-5.22-3.22,3.08,3.08,0,0,0-2.91.54c-1.87,1.59-1.44,5.21-.94,9.39a27.42,27.42,0,0,1,.33,5.16c-.28,2.39-.58,23.47-.59,24.32-.68,16.92,20,51.38,20.88,52.84l.06.09c.3.43,2.43,3.1,8.69,3.1a35.67,35.67,0,0,0,10.52-1.86c10.56-3.3,14.55-7.56,16-10.55a7.7,7.7,0,0,0,.58-5.91c-.14-.68-1.11-5.9.55-9.75,1.92-4.45,2.63-12.47,3-18.12,0-.5.09-1.24.17-2.16C210.54,225,211.07,214.4,209,211Zm-2.37,24.71c-.08.94-.14,1.7-.17,2.21-.2,3.13-.82,12.64-2.75,17.13-2.17,5-.77,11.4-.71,11.67l0,.17a4.65,4.65,0,0,1-.4,3.67c-1,2-4.21,5.88-14.26,9-12.06,3.77-15.61.18-15.85-.08-1.07-1.79-21-35.41-20.41-51.13.09-6.06.35-22.2.57-24.05a28.17,28.17,0,0,0-.33-5.86c-.25-2.12-.72-6.08-.17-6.72a.91.91,0,0,1,.35.05l.29.05c.16,0,3.77.47,5.52,6.67q-.07,4.62-.14,9.78c0,2.88-.06,5-.09,6A23.7,23.7,0,0,1,156,224l1.32.71,1.32.71a26.19,26.19,0,0,0,2.51-11c0-1,.05-3.15.09-6.06,0-3.51.09-6.83.14-10h.05l-.05-.18c.45-27.12,1.24-41.85,2.34-43.78a3.66,3.66,0,0,1,3.71-1.73,2.92,2.92,0,0,1,2.06,2.75c.21,1.54.46,6.9.76,13.11.88,18.21,1.72,33.58,3.16,37.24l2.79-1.1c-.91-2.32-1.65-12.08-2.22-22a5.54,5.54,0,0,1,4.14.64c2.75,1.66,4.45,5.88,5.13,9.27s1.47,12.62,1.48,12.71l3-.25c0-.38-.8-9.44-1.52-13-.09-.44-.24-1.12-.48-1.94,5.81-.12,7.26,5.72,7.42,6.43.64,2.94,4.88,14.46,5.06,14.95l2.82-1c-.91-2.47-2.36-6.5-3.47-9.77,3.45.5,5.31,4.06,7.28,8.57a32,32,0,0,0,1.61,3.36C208.28,215.59,207.07,230.72,206.67,235.69Z" transform="translate(-120.89 -134.75)"/><polygon class="cls-2" points="10.85 6.51 0 17.36 4.09 17.36 4.09 29.32 17.43 29.32 17.43 17.36 21.7 17.36 10.85 6.51"/><polygon class="cls-2" points="10.85 65.32 21.7 54.47 17.61 54.47 17.61 42.51 4.27 42.51 4.27 54.47 0 54.47 10.85 65.32"/></g><g id="click"><path class="cls-1" d="M272,281.25,253.25,244l-2.75-17.5.25-18.5.75-8.75-.5-8,2.75-1,6.25,6,.75-30.75L263,152.25l4-1.5,3,1.5,1.5,4.75.75,25.25s8-4,11.5,6.5c0,0,8.25-3,11.5,10,0,0,6.5-1,10.5,8.75L309,218.25l-2.25,31-3,9,.5,8.25-.75,5.75S287.25,287.5,272,281.25Z" transform="translate(-120.89 -134.75)"/><path class="cls-2" d="M266.25,143.25a10.24,10.24,0,0,0-5,19.2l.13-2.29a8.25,8.25,0,1,1,10.24-.41l.13,2.39a10.24,10.24,0,0,0-5.51-18.88Z" transform="translate(-120.89 -134.75)"/><path class="cls-2" d="M309,211a30.34,30.34,0,0,1-1.44-3c-1.86-4.27-4.62-10.56-11-10.44-.22-.73-.39-1.32-.48-1.71-.79-3.65-4.09-9.47-11.38-8.72a13.53,13.53,0,0,0-5-6.38,8.43,8.43,0,0,0-5.86-1.08c-.22-4-.41-8-.57-11.3-.31-6.53-.56-11.69-.79-13.36a5.86,5.86,0,0,0-4.35-5.28,6.66,6.66,0,0,0-6.88,3c-1.43,2.09-2.25,13.48-2.75,39.42a8.59,8.59,0,0,0-5.22-3.22,3.08,3.08,0,0,0-2.91.54c-1.87,1.59-1.44,5.21-.94,9.39a27.42,27.42,0,0,1,.33,5.16c-.28,2.39-.58,23.47-.59,24.32-.68,16.92,20,51.38,20.88,52.84l.06.09c.3.43,2.43,3.1,8.69,3.1a35.67,35.67,0,0,0,10.52-1.86c10.56-3.3,14.55-7.56,16-10.55a7.7,7.7,0,0,0,.58-5.91c-.14-.68-1.11-5.9.55-9.75,1.92-4.45,2.63-12.47,3-18.12,0-.5.09-1.24.17-2.16C310.54,225,311.07,214.4,309,211Zm-2.37,24.71c-.08.94-.14,1.7-.17,2.21-.2,3.13-.82,12.64-2.75,17.13-2.17,5-.77,11.4-.71,11.67l0,.17a4.65,4.65,0,0,1-.4,3.67c-1,2-4.21,5.88-14.26,9-12.06,3.77-15.61.18-15.85-.08-1.07-1.79-21-35.41-20.41-51.13.09-6.06.35-22.2.57-24.05a28.17,28.17,0,0,0-.33-5.86c-.25-2.12-.72-6.08-.17-6.72a.91.91,0,0,1,.35.05l.29.05c.16,0,3.77.47,5.52,6.67q-.07,4.62-.14,9.78c0,2.88-.06,5-.09,6A23.7,23.7,0,0,1,256,224l1.32.71,1.32.71a26.19,26.19,0,0,0,2.51-11c0-1,.05-3.15.09-6.06,0-3.51.09-6.83.14-10h.05l-.05-.18c.45-27.12,1.24-41.85,2.34-43.78a3.66,3.66,0,0,1,3.71-1.73,2.92,2.92,0,0,1,2.06,2.75c.21,1.54.46,6.9.76,13.11.88,18.21,1.72,33.58,3.16,37.24l2.79-1.1c-.91-2.32-1.65-12.08-2.22-22a5.54,5.54,0,0,1,4.14.64c2.75,1.66,4.45,5.88,5.13,9.27s1.47,12.62,1.48,12.71l3-.25c0-.38-.8-9.44-1.52-13-.09-.44-.24-1.12-.48-1.94,5.81-.12,7.26,5.72,7.42,6.43.64,2.94,4.88,14.46,5.06,14.95l2.82-1c-.91-2.47-2.36-6.5-3.47-9.77,3.45.5,5.31,4.06,7.28,8.57a32,32,0,0,0,1.61,3.36C308.28,215.59,307.07,230.72,306.67,235.69Z" transform="translate(-120.89 -134.75)"/></g><g id="double_click" data-name="double click"><path class="cls-1" d="M395,281.25,376.25,244l-2.75-17.5.25-18.5.75-8.75-.5-8,2.75-1,6.25,6,.75-30.75L386,152.25l4-1.5,3,1.5,1.5,4.75.75,25.25s8-4,11.5,6.5c0,0,8.25-3,11.5,10,0,0,6.5-1,10.5,8.75L432,218.25l-2.25,31-3,9,.5,8.25-.75,5.75S410.25,287.5,395,281.25Z" transform="translate(-120.89 -134.75)"/><path class="cls-2" d="M389.25,134.75a18.75,18.75,0,0,0-5.41,36.7l.13-2.06a16.75,16.75,0,1,1,11.55-.36l-.15,2.18a18.74,18.74,0,0,0-6.12-36.45Z" transform="translate(-120.89 -134.75)"/><path class="cls-2" d="M389.25,143.25a10.25,10.25,0,0,0-4.86,19.27l.14-2.26a8.26,8.26,0,1,1,10.22-.63l.29,2.32a10.24,10.24,0,0,0-5.8-18.69Z" transform="translate(-120.89 -134.75)"/><path class="cls-2" d="M432,211a30.25,30.25,0,0,1-1.44-3c-1.86-4.27-4.62-10.56-11-10.44-.22-.73-.39-1.32-.48-1.71-.79-3.65-4.09-9.47-11.38-8.72a13.53,13.53,0,0,0-5-6.38,8.43,8.43,0,0,0-5.86-1.08c-.22-4-.41-8-.57-11.3-.31-6.53-.56-11.69-.79-13.36a5.86,5.86,0,0,0-4.35-5.28,6.66,6.66,0,0,0-6.88,3c-1.43,2.09-2.25,13.48-2.75,39.42a8.59,8.59,0,0,0-5.22-3.22,3.08,3.08,0,0,0-2.91.54c-1.87,1.59-1.44,5.21-.94,9.39a27.42,27.42,0,0,1,.33,5.16c-.28,2.39-.58,23.47-.59,24.32-.68,16.92,20,51.38,20.88,52.84l.06.09c.3.43,2.43,3.1,8.69,3.1a35.67,35.67,0,0,0,10.52-1.86c10.56-3.3,14.55-7.56,16-10.55a7.7,7.7,0,0,0,.58-5.91c-.14-.68-1.11-5.9.55-9.75,1.92-4.45,2.63-12.47,3-18.12,0-.5.09-1.24.17-2.16C433.54,225,434.07,214.4,432,211Zm-2.37,24.71c-.08.94-.14,1.7-.17,2.21-.2,3.13-.82,12.64-2.75,17.13-2.17,5-.77,11.4-.71,11.67l0,.17a4.65,4.65,0,0,1-.4,3.67c-1,2-4.21,5.88-14.26,9-12.06,3.77-15.61.18-15.85-.08-1.07-1.79-21-35.41-20.41-51.13.09-6.06.35-22.2.57-24.05a28.17,28.17,0,0,0-.33-5.86c-.25-2.12-.72-6.08-.17-6.72a.91.91,0,0,1,.35.05l.29.05c.16,0,3.77.47,5.52,6.67q-.07,4.62-.14,9.78c0,2.88-.06,5-.09,6A23.7,23.7,0,0,1,379,224l1.32.71,1.32.71a26.19,26.19,0,0,0,2.51-11c0-1,.05-3.15.09-6.06,0-3.51.09-6.83.14-10h.05l-.05-.18c.45-27.12,1.24-41.85,2.34-43.78a3.66,3.66,0,0,1,3.71-1.73,2.92,2.92,0,0,1,2.06,2.75c.21,1.54.46,6.9.76,13.11.88,18.21,1.72,33.58,3.16,37.24l2.79-1.1c-.91-2.32-1.65-12.08-2.22-22a5.54,5.54,0,0,1,4.14.64c2.75,1.66,4.45,5.88,5.13,9.27s1.47,12.62,1.48,12.71l3-.25c0-.38-.8-9.44-1.52-13-.09-.44-.24-1.12-.48-1.94,5.81-.12,7.26,5.72,7.42,6.43.64,2.94,4.88,14.46,5.06,14.95l2.82-1c-.91-2.47-2.36-6.5-3.47-9.77,3.45.5,5.31,4.06,7.28,8.57a32,32,0,0,0,1.62,3.36C431.28,215.59,430.07,230.72,429.67,235.69Z" transform="translate(-120.89 -134.75)"/></g><g id="swipe_horizontal" data-name="swipe horizontal"><path class="cls-1" d="M561,281.25,542.25,244l-2.75-17.5.25-18.5.75-8.75-.5-8,2.75-1,6.25,6,.75-30.75L552,152.25l4-1.5,3,1.5,1.5,4.75.75,25.25s8-4,11.5,6.5c0,0,8.25-3,11.5,10,0,0,6.5-1,10.5,8.75L598,218.25l-2.25,31-3,9,.5,8.25-.75,5.75S576.25,287.5,561,281.25Z" transform="translate(-120.89 -134.75)"/><path class="cls-2" d="M598,211a30.25,30.25,0,0,1-1.44-3c-1.86-4.27-4.62-10.56-11-10.44-.22-.73-.39-1.32-.48-1.71-.79-3.65-4.09-9.47-11.38-8.72a13.53,13.53,0,0,0-5-6.38,8.43,8.43,0,0,0-5.86-1.08c-.22-4-.41-8-.57-11.3-.31-6.53-.56-11.69-.79-13.36a5.86,5.86,0,0,0-4.34-5.28,6.66,6.66,0,0,0-6.88,3c-1.43,2.09-2.25,13.48-2.75,39.42a8.59,8.59,0,0,0-5.22-3.22,3.08,3.08,0,0,0-2.91.54c-1.87,1.59-1.44,5.21-.94,9.39a27.4,27.4,0,0,1,.33,5.16c-.28,2.39-.58,23.47-.59,24.32-.68,16.92,20,51.38,20.88,52.84l.06.09c.3.43,2.43,3.1,8.7,3.1a35.67,35.67,0,0,0,10.52-1.86c10.56-3.3,14.55-7.56,16-10.55a7.7,7.7,0,0,0,.58-5.91c-.14-.68-1.11-5.9.55-9.75,1.92-4.45,2.63-12.47,3-18.12,0-.5.09-1.24.16-2.16C599.54,225,600.07,214.4,598,211Zm-2.37,24.71c-.08.94-.14,1.7-.17,2.21-.2,3.13-.82,12.64-2.75,17.13-2.17,5-.77,11.4-.71,11.67l0,.17a4.65,4.65,0,0,1-.4,3.67c-1,2-4.21,5.88-14.26,9-12.06,3.77-15.61.18-15.85-.08-1.07-1.79-21-35.41-20.41-51.13.09-6.06.36-22.2.57-24.05a28.21,28.21,0,0,0-.33-5.86c-.25-2.12-.72-6.08-.17-6.72a.9.9,0,0,1,.35.05l.29.05c.16,0,3.77.47,5.52,6.67q-.07,4.62-.14,9.78c0,2.88-.06,5-.09,6A23.7,23.7,0,0,1,545,224l1.32.71,1.32.71a26.19,26.19,0,0,0,2.51-11c0-1,.05-3.15.09-6.06,0-3.51.09-6.83.14-10h.05l-.05-.18c.45-27.12,1.24-41.85,2.34-43.78a3.66,3.66,0,0,1,3.71-1.73,2.92,2.92,0,0,1,2.06,2.75c.21,1.54.46,6.9.76,13.11.88,18.21,1.72,33.58,3.16,37.24l2.79-1.1c-.91-2.32-1.65-12.08-2.22-22a5.54,5.54,0,0,1,4.14.64c2.75,1.66,4.45,5.88,5.13,9.27s1.47,12.62,1.48,12.71l3-.25c0-.38-.8-9.44-1.52-13-.09-.44-.24-1.12-.48-1.94,5.81-.12,7.26,5.72,7.42,6.43.64,2.94,4.88,14.46,5.06,14.95l2.82-1c-.91-2.47-2.36-6.5-3.47-9.77,3.45.5,5.31,4.06,7.28,8.57a32,32,0,0,0,1.62,3.36C597.28,215.59,596.07,230.72,595.67,235.69Z" transform="translate(-120.89 -134.75)"/><polygon class="cls-2" points="427.26 21.92 416.41 11.07 416.41 15.16 404.44 15.16 404.44 28.49 416.41 28.49 416.41 32.77 427.26 21.92"/><polygon class="cls-2" points="399.26 21.92 388.41 11.07 388.41 15.16 376.44 15.16 376.44 28.49 388.41 28.49 388.41 32.77 399.26 21.92"/></g><g id="_2_fingers" data-name="2 fingers"><path class="cls-2" d="M246.92,323.92a10.25,10.25,0,0,0-10.22,9.57A10.24,10.24,0,1,0,225.31,350l.3-2.07a8.25,8.25,0,1,1,9.4-1.5l.23,2.4a10.25,10.25,0,0,0,4.23-7.61,10.35,10.35,0,0,0,1.64,1.41l.25-2.35a8.25,8.25,0,1,1,9.21,1.31l.07,2.15a10.24,10.24,0,0,0-3.71-19.79Z" transform="translate(-120.89 -134.75)"/><path class="cls-2" d="M274,396a30.3,30.3,0,0,1-1.44-3c-1.86-4.26-4.62-10.56-11-10.44-.22-.72-.39-1.32-.48-1.71-1.29-5.94-4-9-7.93-9.3-.41-6.21-.64-12.94-.83-18.17-.36-10.17-.59-16-1.25-18-.9-2.69-2.76-4.32-5.1-4.45a5.85,5.85,0,0,0-5.51,3.29c-.9,1.91-1.21,9.94-1.66,26.55-.09,3.25-.19,6.76-.3,10.08-.2-3.37-.38-6.9-.54-10-.44-8.49-.85-16.51-1.33-19.51-.8-5-3.41-6.19-4.9-6.44a6.49,6.49,0,0,0-6.41,3.64c-1.22,2.33-1.75,21.38-2,37.86a6.47,6.47,0,0,0-5.23-2.51,3.08,3.08,0,0,0-2.63.57c-2.12,1.67-2.11,5.81-1.85,11.92a38.25,38.25,0,0,1,0,4.85c-.28,2.37.4,19.89.49,22.18-.62,16.94,20,51.32,20.88,52.77l.06.09c.3.43,2.43,3.1,8.69,3.1a35.69,35.69,0,0,0,10.52-1.86c10.56-3.3,14.55-7.56,16-10.55a7.7,7.7,0,0,0,.58-5.91c-.14-.68-1.11-5.9.55-9.75,1.92-4.45,2.63-12.47,3-18.12,0-.5.09-1.24.17-2.16C275.54,410,276.07,399.4,274,396Zm-2.37,24.71c-.08.94-.14,1.7-.17,2.21-.2,3.13-.82,12.64-2.75,17.13-2.17,5-.77,11.4-.71,11.67l0,.17a4.65,4.65,0,0,1-.4,3.67c-1,2-4.21,5.88-14.26,9-12.06,3.77-15.61.18-15.85-.08-1.07-1.79-21-35.41-20.41-51.09v-.12c-.31-7.85-.7-20.13-.51-21.77a38.49,38.49,0,0,0,0-5.33c-.1-2.41-.38-8.82.71-9.44a.62.62,0,0,1,.24,0l.34.08.31,0c.13,0,3.34-.36,4.94,6l.1,0c-.1,9.67-.1,17.31-.1,18.16a12.42,12.42,0,0,1-2.32,7.37l2.3,1.93a15.22,15.22,0,0,0,3-9.3c0-17.82.46-58,1.83-61.14a3.54,3.54,0,0,1,3.27-2.07c1.17.19,2.05,1.63,2.42,3.95.45,2.85.86,10.79,1.29,19.2,1.33,25.75,1.7,25.86,3.28,26.29a1.65,1.65,0,0,0,1.82-.72c.93-1.39,1.22-7,1.73-25.67.27-10,.65-23.68,1.38-25.36a2.89,2.89,0,0,1,2.62-1.57c1.38.08,2.08,1.36,2.43,2.41.55,1.64.81,9.17,1.09,17.14.69,19.71,1.41,33.92,4.38,37.22l2.23-2c-1.23-1.37-2-7.14-2.57-14.09,2.35.41,3.85,2.61,4.78,6.87.64,2.94,4.88,14.46,5.06,15l2.82-1c-.91-2.47-2.36-6.5-3.47-9.77,3.45.5,5.31,4.06,7.28,8.57a32.06,32.06,0,0,0,1.61,3.36C273.28,400.59,272.07,415.72,271.67,420.69Z" transform="translate(-120.89 -134.75)"/></g><g id="pinch"><path class="cls-2" d="M435,395a30.4,30.4,0,0,1-1.45-3c-1.86-4.26-4.62-10.56-11-10.44-.22-.72-.39-1.32-.48-1.71-.8-3.68-4.13-9.55-11.53-8.7a11.26,11.26,0,0,0-4.7-6.06,11,11,0,0,0-8.74-.95c-1-4-1.74-7.59-2.2-9.74l-.52-2.43c-1.4-6.56-3.07-13.13-6.65-15.25a4.72,4.72,0,0,0-3.85-.45c-4.9,1.48-3.84,11.07-2.23,25.58.66,5.91,1.4,12.62,1.67,18.92a147.37,147.37,0,0,1-.24,18.46c-4.32-.6-6.81-7.54-7.25-8.89.07-2,.26-13.61-4.73-18.84a8.13,8.13,0,0,0-6.08-2.62h0a3.19,3.19,0,0,0-2.39,1.07c-2.23,2.43-1.91,8.7-1.27,16.65a47.73,47.73,0,0,1,.29,5.92c-.24,2.45,3.09,12.62,4.17,15.83,3.75,18.46,29.22,55.32,30.31,56.89.3.42,2.43,3.1,8.69,3.1a35.69,35.69,0,0,0,10.52-1.86c10.56-3.3,14.55-7.56,16-10.55a7.7,7.7,0,0,0,.58-5.91c-.14-.68-1.11-5.9.55-9.75,1.92-4.45,2.63-12.47,3-18.12,0-.5.09-1.24.16-2.16C436.54,409,437.07,398.4,435,395Zm-2.37,24.71c-.08.94-.14,1.7-.17,2.21-.2,3.13-.82,12.64-2.75,17.13-2.17,5-.77,11.4-.71,11.67l0,.17a4.65,4.65,0,0,1-.4,3.67c-1,2-4.21,5.88-14.26,9-12.5,3.91-15.86-.09-15.86-.09-.26-.38-26.28-38-29.85-55.86l0-.18c-2-6.08-4.18-13.41-4.05-14.67a45.47,45.47,0,0,0-.29-6.46c-.36-4.44-1-12.71.49-14.37.11-.12.15-.1.22-.1a5.16,5.16,0,0,1,3.91,1.69c4.46,4.67,3.9,16.77,3.89,16.9v.25l.07.24c.14.47,3.17,10.5,9.9,11.28a41.26,41.26,0,0,1-1,5.75l1.44.42,1.44.42c.1-.34,2.48-8.67,1.64-28.2-.27-6.4-1-13.16-1.68-19.12-1.07-9.63-2.4-21.61.12-22.37a1.7,1.7,0,0,1,1.45.16c2.75,1.62,4.43,9.5,5.24,13.29L392,355c2.56,11.89,6.46,28.36,10.81,34.16l2.4-1.8c-2.69-3.59-5.35-12.43-7.36-20.35a8.18,8.18,0,0,1,6.47.6,8.63,8.63,0,0,1,3.72,5.56c.72,3.58,4.31,16.32,4.46,16.86l2.89-.81c0-.12-2.95-10.45-4.08-15.17,6.16-.43,7.7,5.67,7.86,6.39.64,2.94,4.88,14.46,5.06,15l2.81-1c-.91-2.47-2.36-6.5-3.47-9.77,3.44.5,5.31,4.06,7.28,8.57a32,32,0,0,0,1.61,3.36C434.28,399.59,433.07,414.72,432.67,419.69Z" transform="translate(-120.89 -134.75)"/><polygon class="cls-2" points="236.48 224.62 221.14 224.62 224.03 227.51 215.57 235.97 225 245.4 233.46 236.94 236.48 239.96 236.48 224.62"/><polygon class="cls-2" points="239.72 221.38 255.06 221.38 252.17 218.49 260.63 210.03 251.2 200.6 242.74 209.06 239.72 206.04 239.72 221.38"/></g><g id="enhance"><path class="cls-2" d="M560,395a30.4,30.4,0,0,1-1.45-3c-1.86-4.26-4.62-10.56-11-10.44-.22-.72-.39-1.32-.48-1.71-.8-3.68-4.13-9.55-11.53-8.7a11.26,11.26,0,0,0-4.7-6.06,11,11,0,0,0-8.74-.95c-1-4-1.74-7.58-2.2-9.73l-.53-2.44c-1.4-6.55-3.07-13.13-6.65-15.24a4.71,4.71,0,0,0-3.85-.45c-4.9,1.48-3.84,11.07-2.23,25.58.66,5.92,1.4,12.62,1.67,18.92a147.45,147.45,0,0,1-.24,18.46c-4.31-.6-6.81-7.54-7.25-8.89.07-2,.26-13.61-4.73-18.84a8.13,8.13,0,0,0-6.08-2.62h0a3.19,3.19,0,0,0-2.39,1.07c-2.23,2.43-1.91,8.7-1.27,16.65a47.63,47.63,0,0,1,.29,5.92c-.24,2.45,3.09,12.62,4.17,15.83,3.75,18.46,29.22,55.32,30.31,56.89.3.42,2.43,3.1,8.69,3.1a35.69,35.69,0,0,0,10.52-1.86c10.56-3.3,14.55-7.56,16-10.55a7.7,7.7,0,0,0,.58-5.91c-.14-.68-1.11-5.9.55-9.75,1.92-4.45,2.63-12.47,3-18.12,0-.5.09-1.24.16-2.16C561.54,409,562.07,398.4,560,395Zm-2.37,24.71c-.08.94-.14,1.7-.17,2.21-.2,3.13-.82,12.64-2.75,17.13-2.17,5-.77,11.4-.71,11.67l0,.17a4.65,4.65,0,0,1-.4,3.67c-1,2-4.21,5.88-14.26,9-12.5,3.91-15.86-.09-15.86-.09-.26-.38-26.28-38-29.85-55.86l0-.18c-2-6.08-4.18-13.41-4.05-14.67a45.64,45.64,0,0,0-.29-6.46c-.36-4.44-1-12.71.49-14.37.11-.12.16-.1.22-.1a5.16,5.16,0,0,1,3.91,1.69c4.46,4.67,3.9,16.77,3.89,16.9v.25l.07.24c.14.47,3.17,10.5,9.9,11.28a41.29,41.29,0,0,1-1,5.75l1.44.42,1.44.42c.1-.34,2.48-8.67,1.64-28.2-.27-6.4-1-13.16-1.68-19.12-1.07-9.63-2.4-21.62.12-22.38a1.7,1.7,0,0,1,1.45.16c2.75,1.62,4.43,9.5,5.24,13.29L517,355c2.56,11.88,6.46,28.36,10.81,34.16l2.4-1.8c-2.69-3.59-5.35-12.43-7.36-20.35a8.19,8.19,0,0,1,6.47.61,8.63,8.63,0,0,1,3.72,5.56c.72,3.58,4.31,16.32,4.46,16.86l2.89-.81c0-.12-2.95-10.45-4.08-15.17,6.16-.43,7.7,5.67,7.86,6.39.64,2.94,4.88,14.46,5.06,15l2.81-1c-.91-2.47-2.36-6.5-3.47-9.77,3.44.5,5.31,4.06,7.28,8.57a32,32,0,0,0,1.61,3.36C559.28,399.59,558.07,414.72,557.67,419.69Z" transform="translate(-120.89 -134.75)"/><polygon class="cls-2" points="403.15 179.95 387.8 179.95 390.7 182.84 382.24 191.3 391.67 200.73 400.13 192.27 403.15 195.29 403.15 179.95"/><polygon class="cls-2" points="342.72 240.38 358.06 240.38 355.17 237.49 363.63 229.03 354.2 219.6 345.74 228.06 342.72 225.04 342.72 240.38"/></g></svg>